# xmcd CD database file
# Copyright (C) 1995-1998 Ti Kan
#
# Track frame offsets:
#	150
#	16767
#	34032
#	49882
#	69817
#	84380
#	98282
#	110452
#	123332
#	138030
#	161927
#	183107
#	196435
#	214287
#	228107
#	244542
#	259315
#	274715
#	288622
#	313095
#
# Disc length: 4416 seconds
#
# Revision: 3
# Processed by: cddbd v1.4PL0 Copyright (c) Steve Scherf et al.
# Submitted via: CDex 1.40Beta0
#
DISCID=0d113e14
DTITLE=Townes Van Zandt - The Masters
DYEAR=1900
DGENRE=Country
TTITLE0=Poncho And Lefty
TTITLE1=Loretta
TTITLE2=No Place To Fall
TTITLE3=Flyin' Shoes
TTITLE4=When She Don't Need Me
TTITLE5=Rex's Blues
TTITLE6=Waiting Around To Die
TTITLE7=Don't Take It Too Bad
TTITLE8=Colorado Girl
TTITLE9=For The Sake Of The Song
TTITLE10=(Quick Silver Day Dreams Of) Maria
TTITLE11=I'll Be Here In The Morning
TTITLE12=Delta Momma Blues
TTITLE13=Saint John The Gambler
TTITLE14=Honky Tonkin'
TTITLE15=If I Needed You
TTITLE16=White Freightliner Blues
TTITLE17=Nine Pound Hammer
TTITLE18=Why She's Acting This Way
TTITLE19=Who Do You Love
EXTD=ID3G:   2
EXTT0=
EXTT1=
EXTT2=
EXTT3=
EXTT4=
EXTT5=
EXTT6=
EXTT7=
EXTT8=
EXTT9=
EXTT10=
EXTT11=
EXTT12=
EXTT13=
EXTT14=
EXTT15=
EXTT16=
EXTT17=
EXTT18=
EXTT19=
PLAYORDER=
